<svg width="244" height="76" viewBox="0 0 244 76" fill="none" xmlns="http://www.w3.org/2000/svg">
<path d="M0.710938 74V1.27273H32.245C37.7848 1.27273 42.4368 2.01846 46.201 3.50994C49.9889 5.00142 52.8416 7.10843 54.7592 9.83096C56.7005 12.5535 57.6712 15.7614 57.6712 19.4545C57.6712 22.1297 57.0793 24.5682 55.8956 26.7699C54.7356 28.9716 53.102 30.8182 50.995 32.3097C48.888 33.7775 46.4259 34.7955 43.6087 35.3636V36.0739C46.7337 36.1922 49.5746 36.9853 52.1314 38.4531C54.6882 39.8973 56.7242 41.8977 58.2393 44.4545C59.7545 46.9877 60.5121 49.9706 60.5121 53.4034C60.5121 57.3807 59.4704 60.92 57.3871 64.0213C55.3274 67.1226 52.3918 69.5611 48.5803 71.3366C44.7687 73.1122 40.2232 74 34.9439 74H0.710938ZM20.4553 58.233H29.6882C33.0026 58.233 35.4884 57.6174 37.1456 56.3864C38.8028 55.1316 39.6314 53.285 39.6314 50.8466C39.6314 49.142 39.2408 47.6979 38.4595 46.5142C37.6783 45.3305 36.5656 44.4309 35.1214 43.8153C33.701 43.1998 31.9846 42.892 29.9723 42.892H20.4553V58.233ZM20.4553 30.6761H28.5518C30.2801 30.6761 31.8071 30.4039 33.1328 29.8594C34.4586 29.3149 35.4884 28.5336 36.2223 27.5156C36.9799 26.474 37.3587 25.2074 37.3587 23.7159C37.3587 21.4669 36.5537 19.7505 34.9439 18.5668C33.334 17.3594 31.2981 16.7557 28.8359 16.7557H20.4553V30.6761ZM103.587 30.25V45.0227H69.4964V30.25H103.587ZM146.787 75.9886C140.182 75.965 134.476 74.438 129.67 71.4077C124.865 68.3774 121.16 64.0095 118.555 58.304C115.951 52.5985 114.661 45.7566 114.685 37.7784C114.708 29.7765 116.01 22.982 118.591 17.3949C121.195 11.8078 124.888 7.55824 129.67 4.64631C134.476 1.73437 140.182 0.278406 146.787 0.278406C153.392 0.278406 159.098 1.74621 163.903 4.68182C168.709 7.59375 172.414 11.8433 175.018 17.4304C177.623 23.0175 178.913 29.8002 178.889 37.7784C178.889 45.804 177.587 52.6695 174.983 58.375C172.379 64.0805 168.674 68.4484 163.868 71.4787C159.086 74.4853 153.392 75.9886 146.787 75.9886ZM146.787 59.9375C150.196 59.9375 152.99 58.1619 155.168 54.6108C157.369 51.036 158.458 45.4252 158.435 37.7784C158.435 32.7831 157.938 28.6993 156.943 25.527C155.949 22.3546 154.576 20.0109 152.824 18.4957C151.072 16.9569 149.06 16.1875 146.787 16.1875C143.378 16.1875 140.596 17.9157 138.442 21.3722C136.287 24.8286 135.187 30.2973 135.139 37.7784C135.116 42.8684 135.601 47.0587 136.595 50.3494C137.589 53.6165 138.963 56.0312 140.714 57.5938C142.49 59.1562 144.514 59.9375 146.787 59.9375ZM188.158 74V59.7955L215.288 37.3523C217.088 35.8608 218.626 34.464 219.905 33.1619C221.207 31.8362 222.201 30.4749 222.888 29.0781C223.598 27.6813 223.953 26.1307 223.953 24.4261C223.953 22.5559 223.551 20.9579 222.746 19.6321C221.964 18.3063 220.875 17.2884 219.479 16.5781C218.082 15.8442 216.472 15.4773 214.649 15.4773C212.826 15.4773 211.216 15.8442 209.82 16.5781C208.446 17.312 207.381 18.3892 206.624 19.8097C205.866 21.2301 205.487 22.9583 205.487 24.9943H186.737C186.737 19.8807 187.885 15.4773 190.182 11.7841C192.478 8.09091 195.722 5.25 199.912 3.26136C204.102 1.27273 209.015 0.278406 214.649 0.278406C220.473 0.278406 225.516 1.21354 229.777 3.08381C234.062 4.9304 237.365 7.53456 239.685 10.8963C242.028 14.258 243.2 18.1998 243.2 22.7216C243.2 25.5152 242.62 28.2969 241.46 31.0668C240.3 33.813 238.217 36.8551 235.21 40.1932C232.204 43.5312 227.93 47.5085 222.391 52.125L215.572 57.8068V58.233H243.982V74H188.158Z" fill="white"/>
</svg>
