<svg width="432" height="258" viewBox="0 0 432 258" fill="none" xmlns="http://www.w3.org/2000/svg">
<path d="M72.5807 193.878C76.0348 194.719 80.6152 195.757 86.1843 196.769C91.7534 197.807 98.3112 198.845 105.632 200.053C120.137 202.536 137.508 204.769 156.155 206.188C165.466 206.871 175.09 207.331 184.789 207.594C194.488 207.817 204.262 207.778 213.873 207.541C223.497 207.278 232.958 206.74 242.056 206.03C251.142 205.295 259.853 204.323 267.975 203.272C286.722 200.671 305.382 197.137 323.503 191.79C332.564 189.123 341.487 186.049 350.147 182.37C358.795 178.692 367.205 174.436 375.002 169.312C382.936 164.018 390.758 158.461 397.916 152.313C405.025 146.152 411.657 139.373 416.038 131.53C418.178 127.602 419.692 123.438 420.393 119.103C421.081 114.807 421.081 110.104 420.18 106.15C418.353 97.9655 412.208 91.0948 404.774 86.0896C397.278 81.045 388.668 77.419 379.82 74.6865L366.141 70.7848C365.002 70.4695 363.863 70.128 362.712 69.8258L359.258 68.9852L352.35 67.3036C333.915 62.9421 315.243 59.776 296.446 58.0288C258.839 54.495 220.831 57.2143 183.85 65.2147C178.093 66.5547 171.285 67.9999 164.452 69.9442C161.035 70.89 157.544 71.7306 154.177 72.7159C150.811 73.7143 147.519 74.6736 144.416 75.5932C142.851 76.0267 141.337 76.4602 139.885 76.8674C138.434 77.3009 137.045 77.7344 135.731 78.1285C133.102 78.9167 130.737 79.5867 128.772 80.0728C124.818 81.0449 122.402 81.3338 122.352 80.5718C122.302 79.7705 123.829 78.4963 126.77 76.7885C128.247 75.9346 130.074 74.9888 132.239 73.9379C134.416 72.9263 136.882 71.6651 139.735 70.5879C151.074 66.0031 167.618 60.4461 188.193 56.1766C213.097 51.1057 238.502 48.4519 263.92 48.4519C267.099 48.3468 270.277 48.5572 273.444 48.6228L282.967 48.925L292.466 49.6344C295.632 49.8972 298.811 50.0284 301.952 50.475L311.414 51.5918C312.991 51.7889 314.567 51.9333 316.144 52.1829L320.85 52.945L330.261 54.4556C333.402 54.9679 336.493 55.6903 339.61 56.2946C342.726 56.9384 345.842 57.5295 348.946 58.2126L358.207 60.4724C364.401 61.8781 370.496 63.7042 376.603 65.4251C382.686 67.0541 388.931 69.0901 394.875 71.7043C400.845 74.3055 406.677 77.4583 412.045 81.5439C417.352 85.6821 422.207 90.8844 425.374 97.4004C426.775 100.724 428.014 104.218 428.34 107.871C428.427 108.777 428.615 109.697 428.615 110.577L428.665 113.231C428.665 113.677 428.69 114.111 428.678 114.557L428.577 115.884L428.377 118.538C427.551 125.632 424.898 132.411 421.294 138.243C417.677 144.116 413.197 149.147 408.479 153.732C401.558 160.445 394.049 166.238 386.39 171.677L380.596 175.671C378.643 176.998 376.603 178.246 374.601 179.533L368.444 183.067C366.354 184.144 364.264 185.247 362.161 186.298C345.229 194.562 327.395 200.145 309.411 204.506C300.413 206.687 291.34 208.474 282.229 209.971C273.131 211.482 263.982 212.717 254.822 213.663C245.661 214.635 236.475 215.358 227.289 215.818C218.103 216.317 208.905 216.553 199.706 216.566C181.31 216.645 162.925 215.778 144.591 214.11C135.43 213.216 126.282 212.165 117.171 210.852C108.023 209.472 99.0621 208.001 89.9763 206.49C80.9031 204.94 71.7547 203.127 62.7315 200.421C53.7334 197.662 44.8228 193.997 36.6757 188.729C32.5708 186.141 28.7287 183.133 25.1245 179.848C23.2848 178.246 21.6078 176.446 19.8933 174.699C18.2789 172.846 16.6144 171.02 15.1376 169.037C9.06795 161.246 4.36238 152.116 1.83438 142.211C-0.368228 133.304 -0.631039 123.753 1.28373 114.754C2.25989 110.261 3.58646 105.861 5.40111 101.709C7.22827 97.5712 9.34328 93.5775 11.8087 89.8466C14.2992 86.142 17.0024 82.6082 19.9934 79.3633C22.997 76.1316 26.1757 73.0971 29.5923 70.3515C33.0213 67.619 36.5755 65.1359 40.2674 62.9026C43.9593 60.6956 47.7513 58.6727 51.6184 56.8729C55.498 55.0994 59.4276 53.4965 63.3948 52.0514C67.3745 50.6326 71.3793 49.3584 75.4091 48.1892C83.4686 45.9165 91.5657 43.9986 99.6878 42.3959L111.865 39.9654C115.932 39.2298 120.024 38.5859 124.104 37.8897L130.224 36.8781L136.369 36.0375C140.474 35.4989 144.553 34.8814 148.671 34.4085C214.361 26.6577 281.253 30.5331 345.754 45.6013C349.534 46.5209 353.338 47.3092 357.093 48.347L368.369 51.3683C375.903 53.3651 383.599 55.9533 390.87 59.5003C398.154 63.0473 405.137 67.6188 411.182 73.478L412.333 74.5553C412.709 74.9231 413.047 75.3302 413.41 75.7243L415.525 78.0891C416.263 78.851 416.864 79.731 417.514 80.5718L419.429 83.1206C420.593 84.9073 421.732 86.72 422.808 88.5724L424.272 91.4361C424.748 92.3951 425.274 93.3278 425.649 94.3394C427.339 98.2805 428.715 102.353 429.704 106.517C430.73 110.708 431.368 114.807 431.831 119.169C432.532 128.075 430.98 136.746 428.452 144.812C425.899 152.904 422.345 160.497 418.215 167.657C414.073 174.817 409.33 181.556 404.061 187.823C398.78 194.089 392.998 199.922 386.465 204.993C383.224 207.397 380.007 209.656 376.766 211.981L374.338 213.716L373.124 214.582L371.873 215.384L366.854 218.589C363.5 220.717 360.196 222.924 356.692 224.79C353.213 226.695 349.809 228.731 346.28 230.544L335.592 235.733C332.001 237.388 328.296 238.794 324.654 240.344C309.949 246.138 294.706 250.447 279.238 253.258L267.599 255.084L255.898 256.279C253.946 256.516 251.993 256.595 250.041 256.687L244.172 256.976C242.219 257.041 240.254 257.225 238.302 257.199H232.433C225.675 257.33 218.942 256.884 212.209 256.595C208.842 256.411 205.501 256.043 202.147 255.767L197.116 255.32C195.439 255.176 193.774 254.913 192.11 254.729L182.098 253.468C178.769 252.995 175.465 252.417 172.136 251.892C165.528 250.893 158.783 249.593 152.2 247.951C138.984 244.68 126.032 240.173 113.629 234.262C101.24 228.35 89.3631 221.02 78.7005 211.916C68.0503 202.838 58.6142 191.908 51.6935 179.231C44.7728 166.593 40.4551 152.313 39.529 137.705C38.5654 123.109 40.9557 108.422 45.799 94.9045C50.6422 81.3471 57.8257 68.8669 66.511 57.7924C74.6707 47.3485 85.0204 36.9832 96.9846 28.3785C102.954 24.0696 109.312 20.1679 115.907 16.8705C117.546 16.0428 119.236 15.2943 120.888 14.5061C122.565 13.7573 124.267 13.0871 125.944 12.3777C129.335 11.1166 132.714 9.97369 136.056 8.80449C138.847 7.93745 141.9 7.14928 145.117 6.22969C146.719 5.74362 148.396 5.38872 150.098 5.03402C151.812 4.66618 153.552 4.28539 155.329 3.90442C157.093 3.48403 158.92 3.20816 160.76 2.91914C162.6 2.63013 164.465 2.34122 166.342 2.03906C168.219 1.6975 170.121 1.57924 172.036 1.35591C173.951 1.15886 175.866 0.961548 177.78 0.764492C193.136 -0.549208 208.492 0.0156574 219.83 1.06662C229.617 1.99935 239.729 3.27367 249.215 4.71874C250.579 4.9158 251.918 5.09996 253.22 5.29702C254.521 5.52035 255.785 5.73051 257.012 5.92757C259.477 6.34795 261.817 6.7551 264.045 7.13607C268.463 8.00311 272.405 8.76515 275.847 9.52709C279.288 10.3022 282.254 11.0114 284.745 11.642C287.235 12.312 289.25 12.9033 290.814 13.4156C297.084 15.4912 296.083 16.4109 288.599 16.4372C285.308 16.4897 288.737 18.1581 278.312 16.4503C277.886 16.3846 277.023 16.2399 276.622 16.1742C260.779 13.8752 244.835 11.3004 228.703 9.65827C212.584 7.98987 196.24 7.17544 179.958 8.41032C177.467 8.60738 174.977 8.92277 172.487 9.17237L168.757 9.57969L165.053 10.1708C162.587 10.5912 160.097 10.8933 157.657 11.4319L150.335 13.0346C149.109 13.271 147.907 13.6125 146.706 13.9672L143.102 14.9788L139.497 15.9904C138.296 16.332 137.132 16.8048 135.943 17.1989L128.872 19.6951C126.582 20.6541 124.254 21.5474 122.014 22.651C103.93 31.0586 87.611 43.7753 74.6206 59.4609C61.6803 75.1202 51.9438 93.9585 48.3645 114.19C47.476 119.234 46.9253 124.345 46.9003 129.455L46.8627 131.373C46.8627 132.017 46.9003 132.647 46.9253 133.291C46.9879 134.565 46.9879 135.852 47.088 137.114C47.3258 139.649 47.526 142.198 47.9766 144.72C48.2894 147.255 48.9402 149.725 49.4408 152.221C50.1166 154.678 50.7423 157.161 51.5933 159.552C53.2203 164.373 55.1726 169.089 57.5754 173.542C59.9658 178.009 62.6564 182.318 65.66 186.377C68.7011 190.41 72.005 194.246 75.5217 197.846C82.6176 205.006 90.5895 211.272 99.0871 216.645C116.107 227.391 135.055 234.827 154.515 239.543C159.384 240.738 164.277 241.71 169.245 242.525C174.239 243.287 179.207 244.167 184.213 244.837L191.722 245.77C194.225 246.059 196.728 246.453 199.231 246.624L206.752 247.267C209.255 247.491 211.771 247.727 214.286 247.793C234.36 248.923 254.521 248.227 274.307 245.021L278.863 244.312C280.389 244.088 281.879 243.694 283.38 243.392L292.404 241.448C295.382 240.673 298.336 239.806 301.314 238.991L305.769 237.756L310.15 236.258C313.066 235.247 315.994 234.275 318.898 233.237L327.47 229.703C328.897 229.099 330.336 228.56 331.738 227.904L335.918 225.88C338.696 224.514 341.512 223.213 344.278 221.808L352.425 217.262C353.776 216.5 355.14 215.765 356.492 214.977L360.434 212.468L368.331 207.462C370.897 205.689 373.425 203.837 375.978 202.037C378.506 200.211 381.146 198.437 383.449 196.532C385.814 194.627 388.079 192.539 390.282 190.384C394.687 186.062 398.767 181.333 402.522 176.354C410.005 166.37 416.325 155.308 420.318 143.511C422.295 137.626 423.622 131.544 423.897 125.514C423.972 124.003 423.947 122.505 423.897 121.021L423.722 118.801C423.634 118.052 423.496 117.264 423.396 116.502C423.146 114.965 422.996 113.414 422.658 111.904L421.644 107.385C420.055 101.447 417.727 95.7847 414.573 90.6613C411.432 85.5378 407.49 80.9792 402.972 77.0906C398.442 73.1889 393.311 70.0362 387.929 67.3694C382.535 64.7288 376.879 62.5347 371.047 60.8795C367.868 59.9073 364.514 59.1191 361.248 58.2389C357.956 57.3981 354.69 56.4786 351.386 55.7035C348.07 54.9547 344.766 54.1928 341.449 53.444L336.481 52.3141L331.475 51.3157C328.133 50.6588 324.792 49.9891 321.451 49.3323C318.109 48.636 314.73 48.163 311.376 47.5587C308.01 46.9938 304.643 46.3631 301.264 45.8376C297.873 45.3384 294.481 44.8394 291.077 44.3402L291.54 44.4059C263.106 40.5305 234.41 39.1378 205.764 39.5844C198.993 39.5713 192.21 40.018 185.402 40.2676C181.998 40.3595 178.606 40.7011 175.202 40.9244C171.798 41.174 168.394 41.4369 164.99 41.6865C151.387 43.0527 137.733 44.616 124.179 46.9544L114.005 48.6754L103.88 50.6983C97.1098 51.9988 90.3893 53.4967 83.7815 55.2045C77.1611 56.9123 70.6409 58.8695 64.3209 61.2605C57.9884 63.6251 51.8687 66.4496 46.0868 69.8127C40.2674 73.1495 34.9111 77.1037 30.0929 81.6623C25.2371 86.1946 21.0446 91.4493 17.5655 97.0851C14.0614 102.721 11.5334 108.909 9.98153 115.254C8.46724 121.625 8.21694 128.194 9.09298 134.604C9.94399 141.028 12.1466 147.255 15.1126 153.009C18.1037 158.777 21.8956 164.11 26.3134 168.813C30.7186 173.516 35.687 177.641 40.9933 181.096C46.3121 184.538 52.0063 187.337 57.9384 189.544C61.6177 190.975 66.8239 192.447 72.5807 193.878Z" fill="#FFC700" fill-opacity="0.6"/>
</svg>
