<svg width="879" height="459" viewBox="0 0 879 459" fill="none" xmlns="http://www.w3.org/2000/svg">
<path d="M123.5 14C194 14 247 58 247 120C247 181.5 194 225.5 123.5 225.5C53 225.5 7.00355e-07 181.5 7.00355e-07 120C7.00355e-07 58 53 14 123.5 14ZM123.5 68C89.5 68 64 87 64 120C64 153 89.5 172 123.5 172C157.5 172 182.5 153 182.5 120C182.5 87 157.5 68 123.5 68ZM311 0.499994H378V232H311V0.499994ZM69 251H378V378H135V434H70V330H312V302.5H69V251ZM70 407H389.5V458.5H70V407ZM750.961 0.499994H817.461V335H750.961V0.499994ZM798.461 126.5H878.961V181H798.461V126.5ZM470.461 206H508.961C609.461 206 659.461 204 714.961 192L721.461 244.5C664.961 257 611.961 259.5 508.961 259.5H470.461V206ZM470.461 37H677.461V90.5H536.461V234.5H470.461V37ZM518.961 402.5H833.961V455.5H518.961V402.5ZM518.961 300H585.461V429.5H518.961V300Z" fill="#FFC700"/>
</svg>
