<svg width="1059" height="373" viewBox="0 0 1059 373" fill="none" xmlns="http://www.w3.org/2000/svg">
<path d="M245 0.799976H297.8V372.4H245V0.799976ZM161 131.2H260.2V174H161V131.2ZM0.6 30H53.4V119.6H126.2V30H178.6V285.2H0.6V30ZM53.4 160.8V242.4H126.2V160.8H53.4ZM374.969 244.8H406.969C471.769 244.8 521.369 243.6 578.569 235.2L583.369 277.2C525.369 286.4 472.969 288 406.969 288H374.969V244.8ZM374.969 32H562.569V75.2H427.769V258.8H374.969V32ZM415.769 134.8H546.969V176.4H415.769V134.8ZM610.169 1.2H663.769V371.6H610.169V1.2ZM723.338 285.6H1058.54V328.8H723.338V285.6ZM864.138 203.6H917.338V297.6H864.138V203.6ZM862.538 49.6H907.338V62.8C907.338 140.8 851.338 202.8 756.938 220L736.138 178C818.538 165.2 862.538 114 862.538 62.8V49.6ZM873.338 49.6H918.137V62.8C918.137 114 962.138 163.6 1046.54 176L1026.14 218C930.138 201.2 873.338 140.8 873.338 62.8V49.6ZM750.938 29.2H1029.74V71.6H750.938V29.2Z" fill="black"/>
</svg>
