<svg width="135" height="117" viewBox="0 0 135 117" fill="none" xmlns="http://www.w3.org/2000/svg">
<path d="M134.707 69.0521C134.327 66.4755 133.64 63.9533 132.662 61.5385C132.583 61.3486 132.499 61.1642 132.415 60.9799C133.997 56.6871 134.792 52.1459 134.763 47.5727C134.739 42.1577 133.731 36.7918 131.788 31.7354C129.866 26.6585 126.996 21.9914 123.329 17.9819C122.869 17.4791 122.404 16.9819 121.906 16.5182C121.407 16.0545 120.931 15.5685 120.404 15.1328C119.396 14.1999 118.276 13.4569 117.206 12.6301C116.127 11.8243 115.005 11.0784 113.844 10.3956C112.695 9.68965 111.508 9.04812 110.287 8.47391C105.434 6.13233 100.253 4.54065 94.9202 3.75349C85.5308 2.39927 75.9588 3.08328 66.8591 5.75889C63.4636 3.44423 59.6632 1.78439 55.6548 0.865257C52.6759 0.178085 49.6171 -0.10193 46.5625 0.0328986C43.5221 0.182511 40.5118 0.704103 37.599 1.58592C36.8595 1.80378 36.1313 2.04402 35.4086 2.30658C33.9277 2.0648 32.4267 1.9675 30.9269 2.01608C27.5051 2.10734 24.1527 2.999 21.1399 4.61926C19.6715 5.41056 18.3151 6.39305 17.1064 7.5409L16.2044 8.4124C15.8963 8.69731 15.6442 9.03804 15.3697 9.35087L14.5574 10.3118L13.8403 11.3508C11.9684 14.1181 10.6659 17.2284 10.0084 20.5013C9.93562 20.9706 9.8572 21.4509 9.77316 21.9369L9.65551 22.6743C9.65551 22.9034 9.62191 23.138 9.5995 23.3726C6.32882 28.2512 3.80623 33.5891 2.11502 39.21C0.384949 44.9524 -0.29255 50.9588 0.115046 56.941C0.550923 62.9447 2.16703 68.8043 4.87128 74.1859C6.21199 76.8783 7.83241 79.4229 9.70592 81.7778C11.5684 84.1573 13.696 86.3182 16.0476 88.2189C16.6806 88.7272 17.3305 89.2076 17.9971 89.6768C18.6982 93.5374 20.1196 97.2325 22.1875 100.57C24.4007 104.09 27.2658 107.158 30.63 109.609C33.9608 112.068 37.6793 113.956 41.6326 115.195C45.5788 116.459 49.7067 117.067 53.8509 116.994C58.0203 116.944 62.1435 116.115 66.0075 114.553C69.8762 112.956 73.3778 110.589 76.2987 107.598C77.7758 106.105 79.1146 104.482 80.2986 102.749C84.186 101.938 87.9611 100.663 91.5421 98.9502C92.2032 99.3133 92.8698 99.6541 93.5477 99.9726C95.9717 101.007 98.5192 101.726 101.127 102.112C103.729 102.448 106.362 102.477 108.97 102.196C111.565 101.876 114.114 101.259 116.567 100.358C119.011 99.4152 121.33 98.1789 123.474 96.6765C125.607 95.1237 127.517 93.2896 129.155 91.2243C130.74 89.1218 132.035 86.8163 133.004 84.3698C133.923 81.9268 134.54 79.3812 134.841 76.7893C135.091 74.2135 135.046 71.6177 134.707 69.0521V69.0521ZM111.01 13.1106L113.811 14.8311C114.718 15.44 115.57 16.1215 116.455 16.7584C118.17 18.0785 119.753 19.5602 121.183 21.1828C124.043 24.4707 126.344 28.2034 127.995 32.2326C129.623 36.2077 130.624 40.4098 130.964 44.69C131.101 46.7368 131.084 48.7908 130.914 50.835C130.736 52.7351 130.406 54.6181 129.928 56.4661C129.536 55.9075 129.133 55.3488 128.701 54.7902C125.389 50.6631 120.916 47.6168 115.855 46.042C113.321 45.2373 110.672 44.8486 108.012 44.8912L107.262 44.9192C107.379 44.6119 107.491 44.3046 107.615 44.0029C107.794 43.5058 107.917 42.9918 108.068 42.4891C108.229 41.9884 108.362 41.4793 108.466 40.964C109.378 36.8547 109.447 32.6039 108.668 28.4674L108.365 26.9256L107.962 25.4116C107.716 24.3949 107.318 23.4229 106.987 22.4342C106.226 20.4909 105.288 18.6211 104.186 16.8478C103.088 15.0578 101.824 13.3745 100.41 11.8201L99.2899 10.7029L98.7297 10.1442L98.1303 9.63019L96.9314 8.60239C96.5616 8.3119 96.1751 8.04376 95.811 7.77003C96.8025 7.95438 97.7941 8.1666 98.7745 8.40122C103.046 9.4063 107.162 10.983 111.01 13.0882V13.1106ZM91.7326 94.7325C90.0182 93.6131 88.4651 92.2656 87.1164 90.7271L86.2033 89.6768C86.1248 89.5819 86.052 89.4757 85.9736 89.3752C86.2425 88.1015 86.461 86.8167 86.601 85.5262C87.0498 81.3923 86.7941 77.2126 85.8447 73.1637C85.3511 71.1349 84.6645 69.1577 83.7944 67.2589L83.4694 66.5495L83.2061 66.0467C83.1433 65.9122 83.0722 65.7815 82.9932 65.6556L82.8812 65.4657L82.8308 65.3763C82.8308 65.3763 82.898 65.3763 82.926 65.3763L83.363 65.3149L83.5759 65.2758L84.1025 65.1529C84.6067 65.0244 85.1277 64.9239 85.6319 64.7786L87.1276 64.2926C87.3741 64.2088 87.6262 64.1418 87.8727 64.0468L88.5786 63.7563C88.5525 64.5507 88.5824 65.3459 88.6682 66.1361C88.713 66.4768 88.741 66.8177 88.7971 67.1584L89.0324 68.1638C89.1854 68.8376 89.3953 69.4973 89.6598 70.1358C89.9102 70.7843 90.2118 71.412 90.5618 72.0129C90.6458 72.1637 90.7186 72.3202 90.8082 72.471L91.094 72.901C91.279 73.1905 91.4791 73.4702 91.6934 73.739C93.3745 75.9359 95.6062 77.6527 98.1639 78.7165C100.651 79.7425 103.315 80.2721 106.007 80.2751C106.337 80.2751 106.662 80.2751 106.987 80.2751C106.808 80.5935 106.618 80.9119 106.427 81.2248C103.112 86.4587 98.5829 90.8213 93.2228 93.9449C92.7242 94.1907 92.2256 94.442 91.7326 94.7101V94.7325ZM78.3771 99.4251C71.3353 100.758 64.078 100.423 57.1897 98.4475C54.4545 97.6298 51.8097 96.5366 49.2963 95.185C49.6549 95.0901 50.0078 94.9839 50.3663 94.8777C53.2956 93.9984 56.0838 92.7062 58.6463 91.04L59.6155 90.4255C59.9236 90.202 60.2205 89.9618 60.5286 89.7272C61.1281 89.2467 61.7555 88.8221 62.3269 88.2858C63.4808 87.2639 64.5419 86.1423 65.4977 84.934C67.4131 82.5189 68.9263 79.8122 69.9795 76.9177C71.0501 74.0122 71.5982 70.941 71.5985 67.8455C71.6066 64.6881 70.8879 61.571 69.4977 58.7342C68.0688 55.8772 65.9299 53.4328 63.2849 51.634C63.1224 51.5222 62.9544 51.4272 62.7919 51.3211L62.9992 51.1647C63.4922 50.7904 63.9235 50.3547 64.3829 49.9469C64.8423 49.5391 65.2568 49.0753 65.6434 48.6005C66.3395 47.7941 66.969 46.933 67.5257 46.0253C67.6784 45.9446 67.8261 45.855 67.9683 45.7571L68.8478 45.1482C71.1597 43.4903 73.1048 41.3758 74.562 38.9362C77.4467 34.095 78.5963 28.4201 77.8225 22.842C77.8225 22.6855 77.7776 22.5347 77.7552 22.3838C78.2818 22.4479 78.8141 22.4479 79.3406 22.3838C80.2164 22.2912 81.0487 21.9565 81.744 21.4174C82.1921 21.004 82.3546 20.6911 82.3042 20.5347C82.2538 20.3783 81.9064 20.4454 81.3518 20.6242C80.5435 20.8333 79.7008 20.8751 78.8757 20.7471C78.3413 20.6594 77.82 20.5055 77.3239 20.289C76.8579 18.4027 76.1519 16.5835 75.2231 14.8758C74.7697 14.0516 74.2703 13.2533 73.7273 12.4849C74.029 11.6657 74.4602 10.9 75.0046 10.2168C76.0723 8.87314 77.4692 7.82654 79.0605 7.17785C81.437 6.93059 83.8251 6.8113 86.2145 6.82038C87.7828 7.19228 89.2993 7.75514 90.7298 8.49628C95.7631 11.2237 99.842 15.4177 102.421 20.5181C105.069 25.5921 106.193 31.3195 105.66 37.0144C105.362 39.9377 104.577 42.7909 103.335 45.4554C102.271 45.7099 101.229 46.0499 100.22 46.4722C99.053 46.964 97.943 47.5803 96.909 48.3101C96.3824 48.3101 95.8614 48.3101 95.3404 48.3101C94.6376 48.3708 93.9396 48.4771 93.2508 48.6284C92.9091 48.7067 92.5617 48.7738 92.2256 48.8688L91.2284 49.1927C90.8987 49.3018 90.5752 49.4286 90.2592 49.5725C89.9455 49.7122 89.615 49.8351 89.3125 49.9915C88.7074 50.3155 88.0856 50.6228 87.5198 51.0026C86.3734 51.7282 85.2986 52.5606 84.3097 53.4885C82.3686 55.3329 80.7413 57.4802 79.4919 59.8459C79.0137 60.7258 78.6036 61.6409 78.265 62.5831H78.1194L77.5592 62.6614H77.4247C77.3799 62.6614 77.3127 62.6613 77.3631 62.7172L77.5031 62.9519L77.8785 63.5887L77.5984 64.4043C77.4863 64.7171 77.4303 65.0467 77.3463 65.3651C77.2006 66.0075 77.027 66.6445 76.9037 67.2925C76.4611 69.8747 76.3425 72.5019 76.5508 75.1134C76.8168 77.7127 77.3807 80.273 78.2314 82.7442C79.1186 85.2018 80.2879 87.5487 81.716 89.7383C81.8672 89.9674 82.0409 90.1908 82.2033 90.4143C81.9176 91.4645 81.5871 92.5036 81.2006 93.5259C80.4568 95.5732 79.511 97.5418 78.3771 99.4027V99.4251ZM20.9607 84.1967C20.8624 78.4746 22.1907 72.8176 24.8261 67.7337L24.9942 67.421C25.7087 70.5435 26.7159 73.592 28.0025 76.5266C30.6864 82.6978 34.6678 88.2224 39.6774 92.727C34.4524 92.7367 29.2936 91.562 24.5908 89.2914C23.4158 88.7109 22.2783 88.0579 21.1847 87.3362C21.053 86.287 20.9782 85.2316 20.9607 84.1744V84.1967ZM41.2068 89.3585C38.9523 87.2265 36.9316 84.8613 35.1789 82.3029C33.4327 79.7314 31.9501 76.9916 30.7532 74.1246C29.286 70.6017 28.2551 66.9135 27.6832 63.1417C29.8337 60.2213 32.4897 57.7071 35.5262 55.7175C35.952 55.8236 36.3778 55.9242 36.7979 56.0136C38.7877 56.4184 40.804 56.6799 42.8314 56.7957C47.5335 57.1048 52.2482 56.4234 56.6688 54.7958C57.5566 54.4473 58.4244 54.0502 59.2681 53.606C59.5314 53.74 59.7947 53.8741 60.0468 54.0193C62.3887 55.3265 64.3396 57.2313 65.6994 59.5386C67.0406 61.8824 67.776 64.522 67.8394 67.2198C67.9189 69.989 67.482 72.7489 66.5509 75.3591C65.7304 77.7184 64.5575 79.9407 63.072 81.951C62.3036 82.9908 61.4511 83.9661 60.523 84.8671C59.5481 85.7728 58.5151 86.6144 57.4306 87.3865C53.64 89.9483 49.3244 91.6352 44.7978 92.3248C43.5451 91.397 42.3462 90.3992 41.2068 89.3361V89.3585ZM27.1678 55.969C27.1678 54.9076 27.2294 53.8461 27.3191 52.7902C28.3013 53.2707 29.2854 53.7064 30.2714 54.0975C30.5403 54.2036 30.8316 54.293 31.0837 54.3936C30.4227 54.9131 29.7784 55.4494 29.1678 56.0303C28.5572 56.6113 27.8345 57.332 27.2014 58.0135C27.179 57.3208 27.1622 56.6281 27.1678 55.9466V55.969ZM66.0692 9.95983C66.7714 10.5271 67.4446 11.1293 68.0859 11.7642C68.4221 12.1273 68.803 12.4513 69.1055 12.8423L70.0523 13.9596C70.2091 14.1886 70.3716 14.4122 70.5341 14.6413C70.5635 15.6575 70.7879 16.6586 71.1951 17.5907C71.6539 18.5289 72.2739 19.3797 73.027 20.1046L73.3688 20.3951C73.5261 20.8794 73.6497 21.3742 73.7385 21.8755L73.8954 22.5962C73.9514 22.8364 73.957 23.0821 73.9906 23.3279C74.041 23.8139 74.125 24.3056 74.153 24.7972L74.1867 26.2775C74.1867 26.7747 74.1362 27.2664 74.1194 27.7636C73.9823 29.7441 73.5616 31.6948 72.8702 33.5565C72.7174 34.0258 72.5301 34.4832 72.3099 34.9251C72.1217 35.3797 71.9046 35.822 71.6601 36.2492L70.9206 37.5229L70.2035 38.5061C70.351 37.3722 70.3698 36.2253 70.2596 35.0872C70.2086 34.4871 70.1244 33.8904 70.0075 33.2996C69.8618 32.7074 69.6713 32.1265 69.4977 31.5455C68.6878 29.314 67.3749 27.2976 65.6602 25.6519C64.0529 24.1053 62.1875 22.85 60.1477 21.9425C56.2446 20.1682 51.8855 19.6451 47.6717 20.4454C48.6053 19.4389 49.6148 18.5051 50.6912 17.6522C52.3209 16.3631 54.0583 15.2156 55.8845 14.2223C56.8032 13.7195 57.7332 13.2391 58.6855 12.7977C59.6379 12.3564 60.6351 11.971 61.6098 11.552C63.0552 10.9543 64.5566 10.4235 66.086 9.93746L66.0692 9.95983ZM70.45 8.7085C71.2119 8.51856 71.9738 8.34539 72.7469 8.14986C72.3221 8.69834 71.9471 9.28357 71.6265 9.89846C71.2511 9.48507 70.8534 9.08276 70.45 8.68613V8.7085ZM43.0387 29.8528C43.07 29.3785 43.1412 28.9075 43.2516 28.4451C43.3328 27.9766 43.4509 27.5153 43.6045 27.0653C43.8437 26.3187 44.1415 25.592 44.4953 24.8921C45.6504 24.3759 46.8556 23.9791 48.0919 23.7079C49.5251 23.39 50.9962 23.2753 52.4615 23.367C53.9407 23.4515 55.4041 23.7141 56.82 24.1492C58.224 24.6024 59.5701 25.2172 60.8311 25.9814C62.0567 26.7584 63.1706 27.698 64.142 28.7746C65.0624 29.8602 65.7985 31.0887 66.3213 32.4113C67.2757 35.1234 67.2757 38.0787 66.3213 40.7908C66.1025 41.4469 65.8386 42.0872 65.5313 42.707C64.7923 43.1387 64.0206 43.5123 63.2233 43.8243C62.3348 44.1335 61.4169 44.3506 60.4838 44.4722C58.5618 44.7024 56.6135 44.5679 54.7416 44.0756C50.9236 43.1193 47.5572 40.8701 45.218 37.7127C44.1201 36.189 43.3932 34.4314 43.0947 32.5789C42.9459 31.67 42.927 30.7447 43.0387 29.8305V29.8528ZM39.1732 31.9811C39.2709 33.4482 39.5882 34.8925 40.1144 36.2659C41.1664 38.9615 42.8671 41.3577 45.0667 43.2433C47.2105 45.1039 49.703 46.5222 52.3999 47.4163C55.1155 48.3397 58.0032 48.6488 60.8536 48.3212L61.2457 48.2598C60.6725 48.7448 60.0701 49.1944 59.4418 49.6061C57.8854 48.9615 56.262 48.4912 54.6016 48.2039C51.5637 47.6829 48.4615 47.6527 45.414 48.1145C42.373 48.5637 39.4219 49.4874 36.6691 50.8518C35.9464 51.1926 35.2461 51.5836 34.5627 51.9691C32.2088 51.2957 29.9314 50.3803 27.7673 49.2374C28.4141 45.3489 29.6514 41.5814 31.4367 38.0647C32.8247 35.3249 34.5876 32.7906 36.6747 30.5344C37.1789 29.9757 37.7503 29.4617 38.2937 28.9254L39.4141 27.9758C39.2965 28.5623 39.2461 29.16 39.1788 29.7578C39.1352 30.1285 39.1183 30.5019 39.1284 30.875V31.4337L39.1732 31.9811ZM54.5567 51.9635C54.2374 52.0696 53.9237 52.1758 53.6044 52.2707C50.6492 53.113 47.5851 53.5141 44.5121 53.4607C43.1787 53.4364 41.8475 53.3451 40.5234 53.187C41.6194 52.7666 42.7423 52.4194 43.8846 52.1479C46.6186 51.514 49.4374 51.3254 52.2318 51.5892C53.0134 51.6581 53.7899 51.7757 54.5567 51.9412V51.9635ZM83.2005 84.962L82.5955 83.7386C82.4162 83.3085 82.2538 82.8727 82.0857 82.4426C81.9176 82.0124 81.7216 81.5823 81.6039 81.1298C80.4448 77.5912 80.0105 73.8563 80.3266 70.147C80.3994 69.5884 80.4835 69.0298 80.5731 68.4711C80.6067 68.5437 80.6403 68.6109 80.6684 68.6835C81.8479 71.2633 82.6497 73.9987 83.0493 76.8059C83.4265 79.5013 83.4772 82.2322 83.2005 84.9396V84.962ZM89.1276 59.7621C87.7203 60.441 86.2587 61.0016 84.7579 61.438C84.4218 61.5553 84.0745 61.6056 83.7327 61.7006L82.6851 61.9463C83.0572 61.2272 83.4668 60.528 83.912 59.8514C85.5234 57.3654 87.7048 55.2974 90.276 53.8182C90.9326 53.4431 91.6205 53.1254 92.332 52.8685C91.1744 54.4803 90.2573 56.2509 89.6094 58.1252C89.4245 58.6336 89.2677 59.1867 89.1276 59.7397V59.7621ZM97.6261 52.3323L97.7885 52.1926C98.0238 52.1926 98.2535 52.2428 98.4832 52.2819L98.8417 52.3602C97.4423 53.9728 95.8742 55.4315 94.1639 56.7119C95.0632 55.057 96.2334 53.5636 97.6261 52.2931V52.3323ZM103.178 76.4037C102.301 76.2634 101.437 76.0505 100.595 75.7669C100.175 75.6384 99.7773 75.454 99.3683 75.2976C98.9594 75.1412 98.5784 74.9346 98.2087 74.7056C96.7062 73.8637 95.4031 72.709 94.388 71.3202C93.3801 69.9306 92.6932 68.3357 92.3768 66.65C92.1022 65.1006 92.0909 63.5162 92.3432 61.9631L92.8362 61.6782L94.1863 60.8738C97.2413 58.8907 99.9638 56.4399 102.253 53.6115C102.321 53.6507 102.388 53.6786 102.45 53.7177C103.706 54.4418 104.85 55.3452 105.844 56.3991C106.839 57.476 107.702 58.6667 108.416 59.9464C109.111 61.2374 109.643 62.609 110.001 64.03C110.074 64.3875 110.18 64.7394 110.231 65.097L110.382 66.1752C110.45 66.918 110.478 67.6639 110.466 68.4098C110.441 69.9023 110.253 71.3877 109.906 72.8397C109.623 74.0759 109.248 75.2896 108.786 76.4708C106.921 76.7011 105.034 76.6711 103.178 76.3815V76.4037ZM113.917 64.2534C113.039 59.5954 110.592 55.3759 106.982 52.2931C106.204 51.6245 105.366 51.0298 104.477 50.5167L104.584 50.3547L104.976 49.6732L105.536 48.6844C106.139 48.5799 106.747 48.509 107.357 48.472C111.037 48.3155 114.697 49.0839 118.001 50.7065C121.33 52.3212 124.214 54.7198 126.404 57.6951C127.158 58.7345 127.832 59.8289 128.421 60.9687C127.389 63.3831 126.04 65.6505 124.41 67.7115L123.435 68.8733L122.388 69.9906C121.693 70.6979 120.944 71.3497 120.147 71.9402C118.542 73.1368 116.789 74.1207 114.931 74.8674C114.337 75.1077 113.732 75.3144 113.127 75.51C114.276 71.8645 114.546 68.0004 113.917 64.2312V64.2534ZM57.974 5.50194C59.3816 5.98654 60.7443 6.59213 62.0468 7.31191L61.4026 7.53531C60.7751 7.76994 60.1701 8.04373 59.5482 8.30071L57.7052 9.07155C57.0889 9.33411 56.4839 9.63021 55.8788 9.93187C53.4441 11.1275 51.1277 12.549 48.9602 14.1775C46.7412 15.8267 44.76 17.7723 43.0723 19.9595C42.391 20.8606 41.784 21.8152 41.2572 22.814C38.9981 24.0637 36.9242 25.6204 35.0949 27.4395C29.616 32.8862 26.1875 39.9864 24.6693 47.4107C22.8113 46.1618 21.0944 44.7158 19.5489 43.098C17.8496 41.2951 16.4194 39.2574 15.3025 37.048C14.2058 34.8447 13.4502 32.4885 13.0616 30.0595C12.8108 28.5046 12.702 26.9303 12.7367 25.3558C13.7563 23.8196 14.7479 22.4732 15.633 21.395C20.6749 15.183 27.0726 9.87599 34.4898 6.69736C35.4161 6.29887 36.3498 5.93952 37.2909 5.61924C37.9184 5.77565 38.5458 5.96 39.162 6.17787C39.3861 6.26725 39.8735 6.45156 40.1144 6.5577C41.1402 7.01011 42.1324 7.53472 43.0835 8.1275C43.4674 8.37455 43.868 8.59491 44.2824 8.78678C44.7474 8.99906 44.8426 8.78671 45.6493 9.41238C47.4924 10.8704 48.3215 11.9876 48.6521 12.0156C48.8089 12.0156 48.8089 11.8257 48.6521 11.3508C48.5381 11.0414 48.3975 10.7424 48.2319 10.4571C48.1311 10.2783 48.019 10.0828 47.8958 9.89846L47.4532 9.25036C46.5908 8.08093 45.5688 7.03734 44.4169 6.14991C43.582 5.50474 42.6915 4.93468 41.7558 4.44619C43.2015 4.15964 44.6653 3.97299 46.1367 3.88755C50.1497 3.62029 54.1755 4.16168 57.974 5.47958V5.50194ZM14.972 15.7808C15.9928 13.6168 17.3993 11.6559 19.1232 9.99338C20.8111 8.33081 22.8438 7.05711 25.0782 6.26175C26.3069 5.80788 27.5772 5.47483 28.8709 5.26736C26.3742 6.65368 23.998 8.24576 21.7674 10.0269C19.1185 12.1575 16.6576 14.5104 14.4117 17.06C14.5854 16.6076 14.7703 16.1775 14.972 15.7585V15.7808ZM11.6107 78.1187C9.97049 75.8629 8.57519 73.4398 7.44826 70.8901C6.34247 68.4586 5.47751 65.9253 4.86567 63.3261C4.283 60.8792 3.92116 58.3852 3.78446 55.8739C3.66381 53.5409 3.73124 51.202 3.98613 48.8798C4.40418 44.8927 5.31684 40.9729 6.70318 37.21C7.56089 34.8702 8.57722 32.5913 9.74514 30.3891C9.81237 30.8025 9.8796 31.2159 9.94122 31.6348C10.0813 32.1935 10.2213 32.7801 10.3558 33.3611C10.9987 35.7411 11.9517 38.0267 13.1905 40.1596C14.4901 42.3331 16.0579 44.3356 17.8571 46.1202C19.6353 47.9054 21.6126 49.4818 23.7505 50.8184C23.8514 50.8854 23.9578 50.9412 24.0642 51.0082C23.6385 54.6438 23.6385 58.3164 24.0642 61.9519C22.1209 64.7867 20.5666 67.8678 19.4425 71.1135C18.4666 73.9688 17.8237 76.9267 17.5265 79.9287C17.3948 81.4295 17.3499 82.9366 17.3921 84.4425C15.2377 82.5463 13.3006 80.4179 11.6163 78.0964L11.6107 78.1187ZM71.436 107.386C66.9714 110.911 61.5474 113.017 55.8676 113.43C50.1422 113.868 44.3971 112.885 39.1452 110.57C33.8939 108.321 29.3562 104.688 26.0194 100.062C24.3991 97.7591 23.1444 95.2211 22.2996 92.5371C22.2716 92.4533 22.2492 92.364 22.2211 92.2802C22.7085 92.5371 23.1959 92.794 23.6945 93.0286C26.4525 94.3059 29.3603 95.2332 32.3498 95.7884C36.2255 96.5401 40.1961 96.6759 44.1143 96.1906L44.6017 96.5257C51.991 101.425 60.848 103.788 69.6153 103.855C71.5447 103.865 73.473 103.767 75.3911 103.559C74.2025 104.953 72.8797 106.227 71.4416 107.363L71.436 107.386ZM82.8644 98.358C83.6044 96.8541 84.2444 95.3034 84.7803 93.7157C85.447 94.4252 86.136 95.118 86.8643 95.766C87.1949 96.0509 87.5422 96.3246 87.8839 96.576C86.2559 97.2591 84.5892 97.8467 82.8924 98.3357L82.8644 98.358ZM130.796 78.9008C130.043 82.5257 128.504 85.9426 126.287 88.9116C124.002 91.8294 121.082 94.1921 117.749 95.8218C114.4 97.4859 110.746 98.4497 107.01 98.6541C106.077 98.7141 105.142 98.7234 104.209 98.6821C103.744 98.6749 103.28 98.6395 102.819 98.576L101.43 98.4307C99.6 98.1453 97.8063 97.6639 96.0799 96.995L95.5869 96.7882C99.1188 94.6485 102.334 92.0274 105.139 89.0009C107.703 86.2221 109.835 83.0755 111.463 79.6662C114.799 78.9834 117.982 77.7019 120.858 75.8842C122.036 75.1254 123.148 74.2715 124.186 73.3312C125.198 72.3912 126.147 71.3854 127.026 70.3202C128.241 68.8496 129.32 67.2714 130.247 65.6054C130.455 66.3204 130.64 67.0466 130.808 67.7784C131.531 71.4434 131.529 75.2143 130.802 78.8785L130.796 78.9008Z" fill="white" fill-opacity="0.64"/>
</svg>
