<svg width="205" height="5" viewBox="0 0 205 5" fill="none" xmlns="http://www.w3.org/2000/svg">
<path d="M204.988 2.513C204.935 2.27788 204.812 2.07913 204.647 1.95945C204.606 1.92984 204.563 1.90525 204.518 1.88598C204.482 1.86707 204.446 1.85231 204.408 1.84188L204.272 1.8076L204.071 1.76841C203.127 1.65574 202.266 1.63125 201.367 1.58716L198.714 1.49898L193.353 1.39611L179.886 1.26874L182.351 1.17567H182.802C185.592 1.0777 184.61 0.89645 185.456 0.75439C189.315 0.117568 186.267 -0.0783793 174.726 0.0293906C172.213 0.0293906 169.551 0.0293906 166.988 0.0293906L145.049 0L123.219 0.107771L81.0826 0.0489856L60.0184 0.019595H49.4636C45.9567 0.019595 42.4422 0.0195942 38.9277 0.0685806C34.8585 0.117567 30.7892 0.187781 26.7199 0.279222L20.6122 0.445777L17.5527 0.573139L16.7944 0.617229L16.4153 0.646619L16.203 0.671114H16.0817H15.9907L15.8921 0.705404C16.0665 0.989525 15.3234 0.0293885 15.5888 2.22398C15.8618 2.513 15.9187 2.45421 15.9414 2.47871H16.0172H16.1044H16.2258H16.4343H16.8134H17.5716C21.6738 2.56198 25.7228 2.55219 29.7984 2.56689H34.2683C28.9605 2.58648 23.6528 2.61587 18.3451 2.65506C12.8591 2.69915 8.32858 2.84121 5.14015 3.04695C1.95171 3.25269 0.112951 3.50742 0.00300532 3.79644C-0.205513 4.36468 10.4858 4.17364 16.7717 4.14914C36.8906 4.01198 57.0309 3.97933 77.1928 4.05117L137.694 4.15894C155.133 4.19323 182.32 4.15894 190.013 4.07567L194.183 4.02178C195.912 4.02178 197.656 4.02178 199.411 3.9581C200.288 3.93524 201.173 3.89931 202.065 3.85033C202.509 3.85033 202.952 3.80134 203.403 3.75725C203.631 3.75725 203.851 3.71806 204.101 3.67887C204.154 3.67887 204.234 3.65438 204.31 3.63968H204.363H204.393L204.48 3.61029C204.535 3.58597 204.588 3.5565 204.639 3.52212L204.715 3.46823C204.783 3.38496 205.06 3.35557 204.988 2.513ZM98.0181 2.63547C89.2073 2.65506 80.3699 2.65506 71.5059 2.63547H90.8413H102.731H98.0181Z" fill="#F4C620"/>
</svg>
