<svg width="273" height="128" viewBox="0 0 273 128" fill="none" xmlns="http://www.w3.org/2000/svg">
<path d="M271.179 52.5307C270.775 51.1077 270.266 49.7169 269.655 48.3696L268.606 46.4168C268.235 45.7888 267.833 45.1797 267.401 44.5917C265.792 42.3647 263.878 40.3742 261.716 38.6786C260.443 37.2028 259.061 35.8242 257.582 34.554C254.897 32.2927 251.989 30.3085 248.904 28.6318C242.918 25.4848 236.641 22.9239 230.161 20.9849L220.671 17.9827L211.071 15.4459C198.205 12.2654 185.138 9.95756 171.961 8.53811C164.341 7.74422 156.685 7.29708 149.029 7.13283C148.198 6.74848 147.345 6.41331 146.474 6.12906C145.808 5.90093 145.041 5.65455 144.174 5.38079C143.308 5.10704 142.349 4.89715 141.264 4.6234L137.741 3.78388L133.58 3.01736C125.951 1.70306 118.226 1.02849 110.484 1.0007C102.036 0.918586 93.5928 1.43086 85.2166 2.53373C73.3442 4.17704 61.7059 7.20913 50.5409 11.5677C44.5198 13.8653 38.6967 16.6516 33.13 19.899C28.2023 22.7639 23.582 26.1274 19.3419 29.9367C17.0501 32.0149 14.915 34.2598 12.9542 36.6528C10.938 39.0951 9.1482 41.7157 7.60687 44.4822C6.04918 47.2661 4.73331 50.1787 3.67386 53.1877C2.64031 56.2126 1.89781 59.3293 1.45645 62.4954C0.505454 68.6044 0.98369 74.8507 2.85357 80.7438C4.72346 86.6369 7.93408 92.0162 12.2333 96.4593C16.3821 100.739 21.203 104.312 26.5051 107.035C31.694 109.713 37.1426 111.853 42.7662 113.423C47.4154 114.752 52.1381 115.81 56.9103 116.59L57.6494 116.827C59.3376 117.338 61.0075 117.931 62.723 118.332C66.1358 119.245 69.5486 120.157 72.9706 120.979C100.539 127.291 128.979 128.874 157.078 125.66C171.107 124.098 184.97 121.298 198.506 117.292C205.259 115.248 211.966 113.049 218.517 110.421L220.99 109.508C221.812 109.198 222.633 108.87 223.436 108.505L228.281 106.36L233.118 104.225C234.733 103.44 236.348 102.646 237.936 101.761C241.185 100.019 244.243 97.9426 247.061 95.5651C248.509 94.3313 249.852 92.9791 251.076 91.5226C251.496 90.9933 251.907 90.4458 252.299 89.8892C255.148 88.0377 257.832 85.9433 260.32 83.6293C264.525 79.7751 267.807 75.0214 269.92 69.7225C270.969 67.0268 271.639 64.1983 271.909 61.3182C272.196 58.369 271.949 55.3921 271.179 52.5307ZM231.32 32.9206L234.277 33.4681L237.16 34.0978C240.957 34.9451 244.682 36.0861 248.302 37.5106C250.877 38.5173 253.352 39.7638 255.693 41.2337C256.351 41.8998 256.98 42.5842 257.573 43.296C260.056 46.3469 261.858 49.8939 262.857 53.6987C263.947 57.3332 263.882 61.2165 262.671 64.8126C261.46 68.4086 259.162 71.5399 256.095 73.7741C255.403 70.1616 253.812 66.7817 251.469 63.9463C249.06 61.0226 246.205 58.4974 243.009 56.4636C239.939 54.4724 236.692 52.768 233.309 51.3718C231.639 50.6691 229.942 50.0304 228.236 49.4463C227.378 49.1635 226.52 48.8897 225.653 48.6251L223.117 47.9042L218.034 46.4715C217.185 46.2343 216.346 45.9788 215.488 45.7598L212.933 45.1301C182.499 37.4189 151.062 34.4184 119.719 36.2331C115.607 36.4703 111.494 36.7745 107.382 37.1456C109.298 36.6528 111.242 36.1692 113.176 35.7221C116.087 34.9647 119.007 34.408 121.79 33.8149L125.869 32.9571L129.72 32.2819C161.36 26.6726 193.726 26.5213 225.416 31.8347L231.32 32.9206ZM107.957 43.2777C111.05 43.0313 113.988 42.7211 116.762 42.5568L124.537 42.1371C126.946 42.0184 129.154 42.0184 131.144 41.9637C133.133 41.9089 134.903 41.8542 136.427 41.8816C141.528 41.9363 146.209 41.8816 149.677 42.0823C172.113 43.0342 194.374 46.4866 216.045 52.3755L224.257 54.7207C226.896 55.5365 229.485 56.5023 232.014 57.6134C237.014 59.8399 241.805 62.687 245.355 66.4101C247.077 68.1717 248.429 70.2596 249.333 72.5513C249.949 74.2142 250.241 75.98 250.191 77.7527C248.631 78.6652 247.015 79.4774 245.373 80.2895C241.504 82.1145 237.662 83.9943 233.757 85.7646L227.862 88.3106C225.891 89.1592 223.929 90.017 221.921 90.7652C217.924 92.28 213.973 93.9408 209.903 95.2822C193.75 100.996 177.178 105.447 160.335 108.596C158.246 109.043 156.128 109.371 154.011 109.7L147.624 110.713C143.39 111.333 139.128 111.799 134.849 112.346C130.578 112.702 126.316 113.149 122.073 113.432L115.686 113.77C113.55 113.888 111.415 114.016 109.298 114.025C106.643 114.025 103.996 114.126 101.341 114.153C87.6447 112.427 74.133 109.464 60.971 105.302C54.2902 102.999 48.0483 99.5806 42.5107 95.1909C39.7282 92.9405 37.3729 90.2081 35.5573 87.1243C33.7864 84.0822 32.908 80.6029 33.0226 77.0847C33.1372 73.5666 34.2401 70.1518 36.2052 67.2314C38.3233 64.156 41.016 61.5191 44.135 59.4658C50.5226 55.1313 58.0874 52.3755 65.5518 50.4592C79.4974 47.0572 93.6685 44.6572 107.957 43.2777ZM246.66 86.7775C221.096 100.801 193.154 109.962 164.25 113.797C180.3 110.745 196.1 106.499 211.518 101.095L215.561 99.6988L219.558 98.1566C222.213 97.1164 224.896 96.14 227.533 95.0449L235.408 91.6777L237.37 90.8291L239.314 89.9166L243.183 88.0915C244.542 87.4528 245.92 86.8231 247.244 86.1752L246.933 86.5859L246.66 86.7775ZM189.016 17.0702C191.598 17.5447 194.19 17.9827 196.754 18.4663L204.437 20.1636C205.715 20.4647 207.011 20.702 208.279 21.0761L212.075 22.089C214.603 22.7825 217.149 23.4213 219.667 24.1513L227.049 26.4874C217.536 24.7992 207.937 23.6385 198.296 23.0107C187.522 22.2838 176.717 22.1589 165.929 22.6365C155.152 23.1756 144.412 24.2874 133.754 25.9672C119.652 28.2016 105.811 31.855 92.4438 36.8718C90.0347 37.7843 87.8812 38.6969 86.0561 39.509L84.6965 40.166C80.8639 40.8291 77.0465 41.5713 73.2444 42.3926L67.5046 43.6792C65.6066 44.099 63.6629 44.5917 61.7375 45.1028C57.8706 46.1639 54.0834 47.4964 50.404 49.0905C46.6441 50.6885 43.0701 52.6928 39.7458 55.0675C36.2787 57.5042 33.2982 60.5682 30.9582 64.1014C28.5483 67.7667 27.1506 72.0041 26.9066 76.3839C26.6759 80.7684 27.6211 85.1348 29.6442 89.0314C31.6241 92.7738 34.2785 96.118 37.4736 98.8958C40.553 101.589 43.9191 103.937 47.5113 105.895C50.2963 107.425 53.1732 108.781 56.1255 109.955L55.6784 109.819C54.2457 109.362 52.7857 108.906 51.353 108.45C49.9203 107.994 48.506 107.464 47.1007 106.944C44.3631 105.922 41.6256 104.827 39.0158 103.632C33.9608 101.327 29.1772 98.4689 24.7531 95.1088C20.4093 91.8202 16.72 87.747 13.8759 83.1001C11.0451 78.5649 9.3139 73.4307 8.82048 68.1074C8.36415 62.8874 9.52374 57.6534 12.1421 53.1147C14.6317 48.8868 17.9534 45.2081 21.906 42.3013C25.9731 39.2778 30.3468 36.6903 34.9551 34.5814C37.2911 33.4955 39.6728 32.4735 42.091 31.5336C44.5091 30.5937 47.0003 29.7085 49.4641 28.8417L53.1142 27.5094C54.3461 27.0531 55.6145 26.7155 56.8555 26.3049L64.3564 23.9688C74.4301 21.0612 84.6607 18.7275 94.9988 16.9789C100.155 15.9934 105.374 15.4368 110.576 14.7615C111.223 14.6794 111.871 14.579 112.528 14.5151L114.481 14.3509L118.405 14.0224L122.329 13.6938L124.282 13.5296L126.253 13.4475C147.243 12.2842 168.298 13.4995 189.016 17.0702ZM42.1001 21.2312C45.9015 19.3289 49.8037 17.6352 53.7895 16.1576C60.2344 13.675 66.8527 11.6682 73.5911 10.1533C80.2907 8.67217 87.0741 7.59951 93.9038 6.9412C100.686 6.30815 107.498 6.0705 114.308 6.22943C117.702 6.22943 121.079 6.48494 124.455 6.66744L129.492 7.10545C130.067 7.15108 130.633 7.20582 131.208 7.27883L127.311 7.44308C125.659 7.52521 123.999 7.55259 122.356 7.72597L112.464 8.57461C105.894 9.37763 99.3151 10.1441 92.8088 11.3852L87.9086 12.2338C86.2934 12.5532 84.6782 12.9273 83.054 13.2741L78.2085 14.3326L75.7812 14.8619C74.9781 15.0626 74.1842 15.2816 73.3812 15.4915L63.7816 17.9827L54.3005 20.9392L51.9279 21.6875L49.601 22.5362L44.9289 24.2243L40.2568 25.9216C38.7055 26.533 37.1542 27.1626 35.6212 27.8288C32.5369 29.1702 29.4982 30.6211 26.496 32.2636C24.9629 33.1214 23.4482 34.043 21.9334 35.0012C24.85 32.2744 27.9843 29.7902 31.305 27.5733C34.7757 25.2241 38.3971 23.1055 42.1457 21.2312H42.1001Z" fill="#ff8600"/>
</svg>
