<svg xmlns="http://www.w3.org/2000/svg" viewBox="0 0 300 300"><path fill="#E8E2D8" d="M247.06 125.62c-.06-.06-.12-.11-.18-.16-.69-2.09-1.95-4.02-3.45-5.74-2.9-4.22-6.73-7.77-11.44-10.18a34.376 34.376 0 00-7.38-2.74c-7.75-3.9-16.01-7-23.97-9.5-3.49-1.1-7.03-2.07-10.59-2.91-2.13-3.4-4.56-6.62-7.31-9.54-8.75-9.27-21.8-15.35-34.47-10.77-7.95 2.88-14.04 8.97-18.17 16.21-2.49-.01-4.98.03-7.46.12-3.82.15-8.13 1.53-9.77 4.54-.83-.04-1.66-.07-2.48-.1-2.65-.09-5.32-.12-8-.09-5.21-1.75-10.77-2.41-16.25-1.67-3.91.53-7.43 1.85-10.48 3.78-11.42.21-23.07 4.16-30.2 13.42-5.77 7.49-5.88 16.4-2.78 24.44-3.5 1.26-6.76 3.16-9.56 5.8-9.7 9.15-10.19 24.87.74 33.14 5.25 3.98 11.89 6.38 18.29 8.17 11.08 7.64 25.23 11.05 38.48 8.26 1.2-.25 2.38-.57 3.55-.93 3.12 1.28 6.26 2.48 9.39 3.61 5.57 2.02 11.23 3.77 16.95 5.29 3.05 5.29 7.81 9.46 13.97 11.64 9.59 3.39 21.17 1.53 29.23-4.64.14-.11.27-.21.4-.32 1.68.07 3.36.13 5.04.16 3.63.07 7.32.12 11.01 0 14.94 1.71 31.49 2.16 45.89-2.5 11.99-3.88 23.55-12.88 26.09-25.87.5-2.56.63-5.08.44-7.54 1.75-2.2 3.22-4.64 4.32-7.29 5.26-12.71-.5-26.9-9.82-36.09zM53.78 116c2.31-3.05 5.31-5.39 8.65-7.23-1.35.88-2.59 1.9-3.69 3.07-4.95 5.29-3.47 12.03.07 17.67.81 1.3 1.71 2.54 2.66 3.73-3.7-.55-7.49-.67-11.18-.24-1.2-5.79-.5-11.74 3.49-17zm91.91-17.94c.22-.24.44-.47.67-.71 2.47.21 4.93.45 7.39.75 4.14.51 8.27 1.16 12.38 1.93-1.16.68-2.28 1.42-3.36 2.22-5.15-1.34-10.35-2.47-15.59-3.36-.49-.29-.99-.58-1.49-.84zm41.12 7c.5 1.18.91 2.39 1.22 3.64-2.46-.54-4.93-1.01-7.41-1.39-2.16-.63-4.33-1.21-6.52-1.74-1.05-.34-2.1-.67-3.16-.99 1.84-.94 3.77-1.7 5.75-2.26 3.39.83 6.76 1.74 10.11 2.74zM83 109.53c3.93-.21 7.89-.1 11.79-.02 2.61.06 5.21.15 7.82.27-1.81 1-3.54 2.13-5.16 3.43-.2.05-.4.1-.59.15-6.39 1.74-13.9 4.25-20.32 8.09.26-3.65 1.23-7.15 3.24-10.12 1.03-.66 2.11-1.26 3.22-1.8zm11.5 30.26s.03-.05.05-.08c.48-.72 1-1.39 1.53-2.02h.51c-.22 1.09-.4 2.19-.53 3.31-.5-.1-1.02-.18-1.53-.27-.02-.32-.03-.63-.03-.95zm78.82 32.11c.91 1.49 1.67 3.07 2.24 4.7-.17.03-.35.05-.53.08-.8-.13-1.59-.28-2.38-.42-.32-1.31-.71-2.62-1.19-3.89 0-.03-.02-.05-.03-.08.45-.13.9-.28 1.35-.42.18 0 .37.02.55.02zm1.58-8.36c.39-.52.75-1.07 1.11-1.61.58.43 1.15.86 1.72 1.3-.69.4-1.41.77-2.15 1.11-.22-.27-.44-.54-.68-.81zm-61.14-4.9c-.08-.38-.15-.76-.21-1.15.47-.29.93-.59 1.39-.9.38.48.72.97 1.04 1.49-.08.38-.17.75-.27 1.12-.14.03-.28.05-.42.08-.51-.22-1.02-.43-1.52-.65zm50.4-25.2c.06.32.12.64.17.96-.81.99-1.59 2.02-2.36 3.08-.64-1.73-1.49-3.33-2.52-4.81 1.57.24 3.14.5 4.7.78zm-55.02 6.69c-.05.13-.09.27-.13.4-.13.03-.25.04-.38.07-.73.15-1.47.33-2.22.52.17-.69.38-1.35.62-2 .7.35 1.4.68 2.11 1.01zM107 150.77c-.03.44-.05.88-.06 1.32-.16-.51-.3-1.02-.42-1.54.16.07.32.15.48.22zm29.97 14.09c-.67.09-1.33.18-2 .24.44-.64.85-1.3 1.23-1.97.23.58.49 1.16.77 1.73zm-13.68-11.59c-.17.32-.36.64-.55.94.02-.43.04-.86.04-1.28.17.12.34.23.51.34zm-7.2-6.2c-.35.42-.72.82-1.1 1.21-.47-.33-.95-.66-1.45-.97.07-.41.15-.83.23-1.24.44-.06.88-.11 1.31-.15l.14.17c.27.32.57.61.85.92 0 .02 0 .03.01.05zm56.91-8.98c.02.39.05.78.08 1.17-.05.02-.09.04-.14.05-.1-.63-.16-1.26-.18-1.88l.24.66zm18.49 8.45c-.37-1.2-.77-2.4-1.22-3.57.49-.71.96-1.45 1.41-2.19 2.94 1.13 5.83 2.42 8.59 3.93-.5.34-.98.69-1.45 1.06-2.39.42-4.86.66-7.34.77zm7.58 8.6a13.19 13.19 0 012.17-3.07c.19-.2.4-.4.6-.59 1.38-.28 2.75-.62 4.09-1.03-1.5 2.19-3.26 4.15-5.22 5.87-.54-.4-1.08-.79-1.64-1.18zm11.21.05c.5.84.96 1.7 1.37 2.57-1.28.12-2.53.22-3.69.29.82-.91 1.59-1.87 2.33-2.86zm-.3 10.01c.38-.02.75-.04 1.13-.07.37.04.73.08 1.1.11-.3.54-.64 1.06-1 1.58-.4-.56-.81-1.1-1.22-1.62zM86.03 139.24c-.05.16-.08.32-.12.48-.37-.02-.73-.05-1.1-.07.4-.15.81-.28 1.22-.41zm113.28-29.98l-.06.03c-.72 0-1.43.04-2.14.09-.12-.36-.24-.71-.36-1.06.86.31 1.71.63 2.57.95zm-136.18 8.03c-.19 1.41-.29 2.81-.31 4.2-.15.6-.27 1.21-.37 1.83-.41-1.08-.66-2.17-.7-3.27-.06-1.59.57-2.95 1.61-4.11-.08.44-.16.89-.22 1.34zM52.29 139.2c2.44-.22 4.91-.18 7.29.11.9.11 1.78.26 2.67.43-2.04 1.32-3.92 2.87-5.55 4.71-1.5-1.42-2.88-2.95-4.11-4.58-.1-.22-.2-.45-.3-.68zm26.27-35.77c-.1.08-.2.17-.3.26-.48.06-.97.11-1.45.17-.11.02-.22.03-.33.05.03-.03.07-.05.1-.08.66-.14 1.32-.28 1.98-.4zm-12.64 63.4c-.13-.5-.23-.99-.3-1.5 5.08 4.17 10.61 7.85 16.23 11.12-1.66-.86-3.31-1.74-4.94-2.65-2.91-1.62-7.18-3.86-10.89-6.64-.03-.11-.07-.22-.1-.34zm93.33-76.56c.09-.02.18-.04.27-.05 3.89-.67 7.85-.29 11.59.9-3.94-.43-7.9-.72-11.85-.85zm9.52-8.46c1.25.68 2.46 1.44 3.62 2.26-8.93-3.52-19.06-4.26-27.33-1.28 7.05-4.67 15.86-5.22 23.71-.98zm-21.14 6.56c-1.02.64-2 1.35-2.95 2.11-.52.03-1.03.07-1.55.11.1-.06.19-.13.29-.19 1.33-.84 2.74-1.51 4.21-2.02zM41.14 170.78c-6.31-3.56-10.94-8.87-8.7-17.2 1.85-6.86 6.97-11 13.09-13.02.44.72.91 1.43 1.4 2.13 1.06 2.25 2.31 4.42 3.69 6.48-5.18 3.31-11.14 8.09-11.21 14.8-.03 2.46.64 4.73 1.74 6.81zm7.95.52c-1.19-1.35-2.18-2.82-2.82-4.42-1.58-3.93.8-7.2 3.87-9.72-1.87 4.54-2.44 9.55-1.05 14.14zm16.32 7.2c-1.47-.61-2.88-1.27-4.16-1.99-4.91-2.74-6.76-7.31-6.43-11.99 1.62 2.57 3.84 4.78 6.24 6.71 1.17 2.77 2.93 5.31 5.35 7.44-.33-.05-.67-.11-1-.17zm69.79 24.79c-1.75-.73-3.3-1.69-4.68-2.82 5.5 1.16 11.05 2.1 16.63 2.82 1.73.22 3.45.42 5.18.6-5.57 1.72-11.77 1.63-17.13-.6zm96.37-10.05c-9.46 5.26-20.84 6.4-31.74 6.41.51-.46.99-.95 1.43-1.49 6.98-.61 13.91-1.8 20.67-3.68 6.11-1.69 12.64-3.95 16.7-9.1 1.01-1.28 1.8-2.66 2.38-4.11 1.65-1.59 3.01-3.37 4.06-5.29l.66-.48c-1.67 7.44-7.09 13.81-14.17 17.74zm20.94-39.6c-.23 2.39-.89 4.64-1.88 6.72-.16-.45-.34-.89-.52-1.34.79-2.87.08-6.15-1.6-8.98a34.39 34.39 0 001.3-10.09c2.07 4.27 3.15 8.95 2.69 13.68z"></path><path fill="#212B50" d="M260.26 125.74c-4.39-11.04-13.01-19.35-24.03-23.67-9.29-3.65-19.83-4.06-29.26-.93-4.67-11.77-13.98-21.73-25.48-27.06-14.74-6.83-31.85-5.44-45.67 3-7.02 4.29-12.96 10.23-17.07 17.34-19.68-7.74-43.2-13.22-62.01-.37-7.91 5.41-13.37 13.41-14.6 22.98-.91 7.11.6 14.49 4.73 20.26-5.83 2.3-10.45 6.96-13.07 12.92-3.75 8.51-2.64 17.87 1.62 26 8.89 16.97 28.58 26.4 47.13 27.3 9.84.48 19.65-1.47 28.56-5.63 15.54 11.77 35.76 18.87 55.35 16.98 14.6-1.41 31.69-8.98 35.65-24.21 23.05 4.44 48.5-6.65 57.71-29.02 4.64-11.28 4.96-24.5.44-35.87zm-25.09 53.98c-10.53 5.68-23.1 7.12-34.66 4.11-1.48-.39-3.64.48-3.88 2.19-2.09 14.9-18.36 21.79-31.81 22.66-18.2 1.16-36.96-5.37-51.12-16.7-1.16-.93-2.46-1.2-3.82-.5-17.74 9.07-40.14 7.35-56.35-4.23-8.23-5.88-15.62-15.24-15.81-25.77-.15-8.6 5.76-18.3 14.89-19.32 2.46-.28 4.48-3.37 2.24-5.37-5.76-5.16-7.72-13.09-6.25-20.58 1.63-8.27 7.21-14.69 14.5-18.67 17.86-9.74 38.72-3.26 56.22 3.87 1.21.49 2.99-.31 3.56-1.44 8.18-16.24 27.02-26.58 45.19-23.57 14.97 2.48 27.53 13.35 33.04 27.22-.84.44-1.66.91-2.47 1.41-3.43 2.15-.28 7.61 3.17 5.45.4-.25.81-.48 1.22-.71.17.75.33 1.5.46 2.26.69 3.99 6.77 2.31 6.08-1.66-.19-1.08-.42-2.15-.68-3.22 16.37-5.48 36.02 1.94 44.07 17.68 10.15 19.84 1.43 44.53-17.81 54.9z"></path><path fill="#212B50" d="M84.73 173.11c-10.36 1.48-21.27-5-25.03-14.73-1.45-3.74-7.55-2.13-6.08 1.66 5.11 13.24 18.75 21.15 32.77 19.15 4-.57 2.31-6.65-1.66-6.08zM164.87 192.58c-3.44 1.78-7.13 2-10.66.32-3.66-1.74-6.28 3.99-2.61 5.74 4.84 2.31 10.62 2.36 15.41-.13 1.52-.79 2.51-2.28 1.9-4.03-.5-1.44-2.53-2.68-4.03-1.9z"></path></svg>