<svg xmlns="http://www.w3.org/2000/svg" viewBox="0 0 300 300"><path d="m128.04,177.6c-6.2,0-8.85-.37-9.7-1.18-.36-.34-.56-.8-.56-1.28,0-1.32,1.18-1.78,3.11-2.04-8.77-.07-12.75-.54-13.75-1.5-.36-.35-.56-.8-.56-1.28,0-1.36,0-2.08,11.22-2.59-26.93.36-34.02,0-35.19-1.15-.32-.31-.5-.73-.5-1.17,0-1.27,0-2.04,9.24-2.6-6.24-.21-9.29-.7-10.12-1.51-.36-.35-.56-.8-.56-1.28s.2-.93.55-1.28c.04-.04.08-.07.13-.11-7.85-.31-12.15-.91-13.13-1.86-.37-.36-.57-.82-.57-1.31,0-.69.26-1.21,1-1.61-26.9.17-40.61-.44-42.46-2.25-.37-.36-.58-.83-.58-1.32s.2-.96.57-1.32c1.73-1.73,13.54-2.57,36.55-2.95-.24-.31-.37-.68-.37-1.06,0-2.29,2.3-3.37,41.7-3.81-.26-.31-.4-.69-.4-1.09,0-1.73,1.65-2.16,6.96-2.63,3.37-.3,8.19-.57,14.73-.82,12.09-.46,28.18-.77,43.73-1.07,10.89-.21,22.42-.43,32.13-.71-16.62.1-39.47.67-59.53,1.17-59.06,1.48-76.52,1.63-78.42-.22-.33-.32-.52-.75-.52-1.2,0-1.79,1.85-2.2,7.81-2.63,3.87-.28,9.42-.5,16.98-.67,3.5-.08,7.31-.15,11.34-.21-.28-.32-.43-.72-.43-1.14,0-1.75,1.92-2.01,5.6-2.34,2.57-.23,6.27-.44,11.3-.65-6.04-.12-8.3-.5-8.98-1.16-.33-.32-.51-.75-.51-1.2,0-.83.67-1.5,1.5-1.5.41,0,.78.16,1.05.43,3.6.98,30.05.25,51.4-.34,38.78-1.07,45.83-1.03,47.15.25.29.28.5.76.5,1.16,0,1.75-1.9,2.12-6.24,2.54-1.25.12-2.73.24-4.45.35,10.53-.08,14.71.3,15.68,1.23.34.33.53.77.53,1.23,0,.8,0,1.42-2.2,1.91,10.09.11,14.51.59,15.45,1.51.34.33.53.77.53,1.23,0,1.79-1.99,2.04-6.12,2.38-2.45.2-5.83.39-10.26.57,30.97-.72,42.72-.43,44.46,1.26.36.35.55.8.55,1.28,0,1.81-1.75,2.33-9.35,2.82-1.11.07-2.34.14-3.69.2.81.18,1.32.4,1.57.64.34.33.53.77.53,1.23s-.19.91-.54,1.26c-.57.57-2.29,1.03-5.51,1.39,19.86-.13,27.49.32,28.69,1.48.33.33.52.75.52,1.21,0,1.42-.98,2.18-5.78,2.74,7.96.13,11.31.53,12.05,1.26.33.32.51.74.51,1.18,0,.47-.19.92-.54,1.27-1.66,1.65-12.85,2.33-41.13,2.5.13.24.2.51.2.79,0,1.38,0,2.23-11.23,2.88,20.72-.16,26.93.27,28.02,1.34.33.32.5.74.5,1.18,0,1.94,0,2.87-33.03,3.6.05.04.1.08.15.12.33.32.51.74.51,1.18,0,1.73-1.91,1.98-5.57,2.31-2.54.23-6.18.44-11.14.64-1.54.06-3.18.13-4.89.19.29.12.51.26.67.41.36.34.56.8.56,1.28,0,.83-.67,1.5-1.5,1.5-.47,0-.9-.22-1.17-.56-3.06-.94-21.96-.11-37.23.55-14.21.62-23.53.97-29.52.97Zm66.42-2.46h0s0,0,0,0Zm28.66-9.26c-14.46.09-33.22.46-50.83.82.06,0,.12,0,.18,0,16.87-.2,35.9-.43,50.64-.82Zm-12.84-5.51c-8.96.09-20.03.36-31.5.69,11.44-.18,22.53-.4,31.5-.69Zm-118.6-.52c11.4.31,32.34-.19,52.88-.78-21.65-.03-41.86.14-52.88.78Zm159.93-3.88c-5.52.04-11.9.13-18.84.25,6.91-.05,13.3-.13,18.84-.25Zm-174.34-.5c17.21.96,61.68-.03,99-.95-3.91,0-7.82,0-11.71,0-34.04-.03-71.73-.06-87.29.95Zm168.26-4.92c-15.31,0-37.69.44-60.8.97,26.98,0,54.46-.14,69.32-.91-2.5-.04-5.36-.06-8.52-.06Zm-212.57-.36c17.95,1.52,80.46.03,127.69-1.1,3.64-.09,7.16-.17,10.58-.25-9.03,0-19.06-.02-30.23-.05-41.71-.12-92.21-.26-108.03,1.41Zm191.07-5.02c-11.27,0-26.64.29-42.84.67,19.57-.03,37.25-.18,48.48-.65-1.74-.02-3.62-.03-5.64-.03Zm-147.91-.41c13.97.25,38.64-.26,62.64-.85-24.4.05-48.82.21-62.64.85Zm159.85-4.64c-10.29,0-24.09.3-38.17.69,17.15-.08,32.7-.25,42.92-.66-1.48-.02-3.07-.03-4.75-.03Zm-53.95-1.86c-4.17.08-8.49.17-12.88.25-15.56.3-33.34.65-46.08,1.16,13.92-.08,34.21-.68,53.01-1.24,2.03-.06,4.01-.12,5.95-.17Zm-73.17-13.71h0s0,0,0,0Zm0,0h0s0,0,0,0Z" fill="#DB3F29"></path></svg>